<?xml version="1.0" standalone="no"?>
<!DOCTYPE svg PUBLIC "-//W3C//DTD SVG 20010904//EN"
 "http://www.w3.org/TR/2001/REC-SVG-20010904/DTD/svg10.dtd">
<svg version="1.0" xmlns="http://www.w3.org/2000/svg"
 width="1589.000000pt" height="1589.000000pt" viewBox="0 0 1589.000000 1589.000000"
 preserveAspectRatio="xMidYMid meet">
<g transform="translate(0.000000,1589.000000) scale(0.100000,-0.100000)"
fill="#000000" stroke="none">
<path d="M7682 14914 c-22 -38 -84 -145 -137 -239 -211 -366 -396 -687 -485
-840 -188 -324 -226 -391 -233 -405 -4 -8 -17 -31 -28 -50 -12 -19 -55 -93
-96 -165 -42 -71 -82 -141 -90 -154 l-15 -24 -32 59 c-18 33 -55 100 -83 149
-28 50 -63 113 -78 140 -15 28 -35 64 -45 80 -10 17 -29 50 -42 75 -14 25 -86
154 -161 287 -75 133 -158 282 -185 330 -27 48 -59 106 -72 128 -90 162 -173
305 -175 303 -3 -3 -129 -218 -303 -518 -65 -112 -92 -159 -110 -185 -6 -11
-15 -27 -19 -35 -4 -8 -39 -69 -78 -135 -131 -221 -195 -332 -195 -339 0 -6
182 -337 273 -496 11 -19 30 -53 43 -75 12 -22 39 -71 61 -110 22 -38 62 -110
90 -160 233 -417 643 -1147 673 -1200 42 -75 213 -379 280 -500 94 -169 105
-188 275 -490 84 -148 208 -369 275 -490 68 -121 131 -233 140 -250 9 -16 45
-79 79 -140 33 -60 66 -117 71 -125 6 -8 14 -24 19 -35 5 -11 22 -43 39 -71
16 -28 45 -78 63 -110 33 -60 196 -351 232 -414 30 -53 199 -356 322 -575 44
-79 107 -191 179 -317 36 -64 66 -119 66 -121 0 -2 28 -53 63 -113 35 -60 77
-135 95 -166 17 -32 114 -205 215 -385 101 -180 197 -350 212 -378 15 -27 67
-120 115 -205 48 -85 100 -177 115 -205 15 -27 45 -79 65 -115 21 -36 52 -92
70 -125 18 -33 133 -238 255 -455 122 -217 233 -415 247 -440 14 -25 89 -160
168 -300 79 -140 154 -275 168 -300 14 -25 93 -166 177 -315 83 -148 164 -292
179 -320 16 -27 38 -68 51 -90 125 -221 156 -278 183 -325 16 -30 57 -103 90
-162 l60 -108 -31 -1 c-197 -3 -1028 1 -1036 5 -9 6 -41 60 -104 176 -17 30
-50 90 -74 133 -24 42 -55 99 -70 125 -14 26 -44 79 -66 117 -22 39 -52 93
-67 120 -15 28 -36 66 -47 85 -12 19 -129 229 -261 465 -224 403 -359 643
-405 725 -20 35 -47 84 -90 163 -13 23 -76 134 -139 247 -63 113 -117 212
-121 220 -4 8 -15 29 -25 45 -22 35 -65 111 -145 258 -13 23 -53 94 -89 157
-73 129 -108 192 -149 267 -15 28 -68 123 -117 210 -49 87 -100 178 -114 203
-14 25 -65 117 -115 205 -49 88 -105 187 -123 220 -18 33 -61 110 -95 170 -87
154 -114 202 -148 265 -17 30 -58 105 -92 165 -34 61 -77 137 -95 169 -18 33
-55 98 -81 144 -27 47 -49 86 -49 88 0 1 -38 71 -85 154 -47 84 -102 182 -122
219 -20 36 -39 71 -43 76 -4 6 -22 37 -40 70 -43 78 -409 732 -620 1110 -27
48 -107 191 -145 260 -15 28 -47 84 -70 125 -23 41 -53 95 -67 120 -14 25 -66
117 -115 205 -50 88 -105 187 -123 220 -57 104 -76 139 -109 193 -17 29 -31
55 -31 57 0 2 -22 42 -50 90 -28 48 -50 88 -50 91 0 2 -13 25 -28 51 -16 27
-51 89 -79 138 -201 359 -340 607 -361 645 -13 25 -32 59 -42 75 -25 42 -81
145 -97 177 -8 15 -18 30 -23 33 -6 4 -203 -317 -298 -487 -19 -32 -38 -66
-79 -133 -6 -11 -42 -72 -80 -135 -37 -63 -111 -189 -165 -279 l-98 -164 29
-51 c16 -28 43 -78 61 -111 18 -33 42 -76 53 -95 11 -19 33 -60 50 -90 17 -30
56 -100 87 -155 31 -55 72 -127 90 -160 18 -33 44 -80 58 -105 14 -25 64 -115
112 -200 152 -271 231 -410 257 -458 15 -26 66 -119 116 -207 49 -88 105 -189
125 -225 20 -36 60 -107 89 -159 29 -51 53 -95 53 -96 0 -2 20 -38 45 -79 25
-42 45 -79 45 -81 0 -3 10 -22 23 -43 13 -20 42 -71 64 -112 22 -41 90 -163
150 -270 61 -107 121 -215 135 -240 34 -62 277 -497 301 -540 11 -19 31 -55
45 -80 13 -25 28 -49 32 -55 4 -5 27 -46 50 -90 24 -44 71 -129 105 -190 78
-137 94 -165 135 -240 18 -33 40 -73 50 -90 10 -16 29 -50 42 -75 24 -44 307
-550 503 -900 54 -96 109 -195 123 -220 14 -25 64 -115 112 -200 48 -85 100
-177 115 -205 15 -27 47 -84 70 -125 23 -41 99 -178 170 -305 70 -126 165
-295 210 -375 45 -80 99 -176 120 -215 36 -67 106 -193 125 -225 5 -8 41 -73
81 -145 40 -71 162 -289 271 -484 109 -195 196 -356 194 -359 -6 -6 -5925 -7
-5930 -1 -3 2 146 265 330 584 550 952 571 989 593 1025 11 19 29 51 40 70 10
19 115 202 233 405 118 204 226 390 240 415 35 63 156 272 167 290 5 8 52 89
104 180 53 91 143 248 202 350 59 102 143 248 188 325 123 214 178 309 257
443 39 68 84 147 100 175 l28 52 -130 230 c-71 127 -134 239 -139 250 -6 11
-15 29 -22 40 -7 11 -27 47 -45 80 -18 33 -42 76 -53 95 -11 19 -82 144 -156
278 -74 133 -139 244 -143 247 -5 3 -23 -21 -41 -52 -18 -32 -96 -168 -174
-303 -78 -135 -203 -351 -277 -480 -75 -129 -145 -251 -157 -270 -11 -19 -24
-42 -28 -50 -3 -8 -21 -39 -40 -68 -18 -29 -33 -54 -33 -56 0 -3 -19 -37 -43
-78 -24 -40 -55 -93 -69 -118 -21 -37 -106 -184 -452 -782 -11 -20 -55 -97
-97 -170 -42 -73 -168 -290 -279 -483 -112 -192 -279 -483 -373 -645 -93 -162
-213 -369 -265 -460 -52 -91 -103 -178 -112 -195 -10 -16 -118 -203 -240 -415
-517 -894 -588 -1017 -612 -1060 -22 -38 -603 -1044 -614 -1061 -2 -3 2830 -6
6292 -6 5358 0 6294 2 6290 14 -3 8 -49 91 -102 186 -54 95 -111 197 -127 227
-17 30 -41 72 -54 92 -13 21 -23 40 -23 42 0 3 -13 27 -28 53 -16 26 -45 79
-66 116 -42 78 -50 92 -138 247 -36 63 -78 138 -93 165 -15 28 -39 70 -53 95
-35 61 -142 254 -177 315 -46 83 -119 212 -204 363 -45 78 -81 144 -81 146 0
1 -32 59 -71 127 -39 68 -85 149 -102 179 -36 66 -242 434 -282 505 -16 28
-71 127 -123 220 -52 94 -101 181 -110 195 -9 14 -15 28 -14 33 1 4 -2 7 -8 7
-5 0 -10 4 -10 9 0 5 -17 40 -39 78 -30 52 -438 779 -613 1093 -14 25 -76 135
-138 245 -61 110 -157 281 -213 380 -55 99 -108 194 -117 210 -9 17 -57 102
-107 190 -49 88 -105 187 -123 220 -18 33 -42 74 -52 90 -10 17 -21 37 -25 45
-4 8 -32 60 -63 115 -31 55 -72 127 -90 160 -33 60 -376 670 -413 735 -11 19
-30 53 -42 75 -11 22 -51 92 -87 155 -35 63 -77 138 -93 165 -109 197 -269
482 -275 490 -4 6 -23 39 -42 75 -36 67 -74 134 -115 205 -12 22 -26 47 -30
55 -4 8 -29 52 -55 98 -26 46 -48 85 -48 86 0 2 -22 41 -48 87 -27 46 -60 104
-74 129 -106 190 -184 330 -201 360 -57 100 -155 275 -197 350 -26 47 -58 103
-70 125 -12 22 -56 101 -98 175 -41 74 -84 151 -95 170 -11 19 -32 58 -47 85
l-28 50 165 285 c91 157 178 308 193 335 56 100 65 115 71 115 4 0 30 -42 59
-92 58 -101 125 -217 337 -583 76 -132 142 -247 146 -255 4 -8 15 -28 26 -45
30 -49 266 -459 274 -475 4 -8 17 -31 28 -50 23 -38 235 -404 266 -460 11 -19
112 -195 225 -390 113 -195 213 -368 222 -385 9 -16 21 -37 26 -45 22 -34 100
-171 100 -176 0 -3 14 -25 30 -49 17 -24 30 -46 30 -48 0 -3 27 -51 60 -107
33 -56 60 -103 60 -105 0 -2 27 -49 60 -104 33 -56 60 -106 60 -111 0 -6 4
-10 8 -10 4 0 13 -12 19 -27 7 -16 17 -35 23 -43 12 -18 277 -476 330 -570 19
-36 79 -139 132 -230 209 -360 357 -617 383 -665 15 -27 31 -54 35 -60 4 -5
17 -27 29 -48 12 -21 89 -156 173 -300 83 -144 160 -278 171 -297 10 -19 61
-107 112 -195 276 -479 550 -954 566 -982 11 -18 28 -48 38 -67 11 -19 31 -53
45 -75 15 -22 26 -42 26 -44 0 -2 54 -98 121 -212 66 -115 131 -227 143 -249
13 -23 74 -129 136 -236 62 -107 121 -210 131 -228 35 -60 56 -96 189 -327 74
-126 140 -241 147 -255 8 -14 26 -46 41 -71 15 -25 82 -142 150 -260 68 -118
128 -221 133 -229 38 -66 126 -218 132 -230 4 -8 13 -24 20 -35 14 -24 96
-165 125 -215 10 -19 104 -181 207 -360 103 -179 199 -345 213 -370 13 -25 28
-49 32 -55 4 -5 86 -147 183 -315 96 -168 184 -321 195 -340 73 -128 213 -370
259 -447 l54 -93 700 0 c384 0 699 1 699 3 0 2 -31 57 -69 123 -185 323 -266
462 -288 496 -12 21 -23 40 -23 43 0 3 -25 46 -55 96 -30 50 -55 92 -55 94 0
2 -45 81 -101 176 -55 95 -111 191 -123 213 -13 23 -83 145 -156 271 -73 127
-140 244 -150 260 -16 28 -52 91 -244 423 -40 70 -135 235 -211 367 -75 132
-155 268 -176 302 -22 34 -39 65 -39 67 0 3 -30 56 -66 118 -87 147 -406 703
-440 765 -15 26 -30 53 -34 58 -4 6 -41 69 -82 140 -74 127 -118 205 -341 590
-60 105 -118 205 -128 223 -11 18 -37 63 -58 100 -49 87 -140 243 -206 357
-29 50 -62 106 -73 125 -11 19 -70 123 -132 230 -62 107 -121 211 -132 230
-11 19 -80 139 -153 265 -73 127 -142 246 -152 265 -11 19 -78 134 -148 255
-70 121 -139 240 -152 265 -14 25 -38 65 -53 90 -26 44 -275 475 -320 555 -12
22 -89 155 -170 295 -81 140 -158 273 -170 295 -12 22 -60 104 -106 183 -46
79 -84 146 -84 149 0 4 -6 14 -14 22 -7 9 -27 41 -43 71 -46 85 -36 68 -348
605 -51 88 -102 176 -113 195 -10 19 -93 163 -184 320 -338 587 -436 756 -467
810 -17 30 -35 62 -40 70 -9 14 -222 384 -280 484 -13 22 -108 187 -211 366
-103 179 -200 348 -215 375 -15 28 -31 55 -35 60 -6 8 -104 177 -260 450 -86
150 -192 333 -200 345 -5 8 -17 29 -26 45 -9 17 -127 221 -262 455 -235 408
-451 782 -498 864 l-22 38 -40 -68z"/>
</g>
</svg>
